HIERARCHY
ROOT Hips
{
	OFFSET 0.000000 35.082581 0.000000
	CHANNELS 6 Xposition Yposition Zposition Xrotation Yrotation Zrotation 
	JOINT Spine
	{
		OFFSET 0.000000 6.876099 0.125700
		CHANNELS 3 Xrotation Yrotation Zrotation
		JOINT Spine1
		{
			OFFSET 0.000000 5.730043 0.104720
			CHANNELS 3 Xrotation Yrotation Zrotation
			JOINT Spine1_split
			{
				OFFSET 0.000000 5.730043 0.104720
				CHANNELS 3 Xrotation Yrotation Zrotation
				JOINT Spine2
				{
					OFFSET 0.000000 5.730043 0.104720
					CHANNELS 3 Xrotation Yrotation Zrotation
					JOINT Neck
					{
						OFFSET 0.000000 10.314075 0.188496
						CHANNELS 3 Xrotation Yrotation Zrotation
						JOINT Head
						{
							OFFSET 0.000000 7.643700 -2.377400
							CHANNELS 3 Xrotation Yrotation Zrotation
							JOINT HeadTop_End
							{
								OFFSET 0.000000 43.788605 -13.619600
								CHANNELS 3 Xrotation Yrotation Zrotation
								End Site
								{
									OFFSET 0.000000 0.000000 0.000000
								}
							}
						}
					}
					JOINT LeftShoulder
					{
						OFFSET 2.196100 4.412489 0.087492
						CHANNELS 3 Xrotation Yrotation Zrotation
						JOINT LeftShoulder_split
						{
							OFFSET 2.196100 4.412489 0.087492
							CHANNELS 3 Xrotation Yrotation Zrotation
							JOINT LeftArm
							{
								OFFSET 8.771219 -2.981674 -0.026999
								CHANNELS 3 Xrotation Yrotation Zrotation
								JOINT LeftForeArm
								{
									OFFSET 8.512804 0.000000 -0.000000
									CHANNELS 3 Xrotation Yrotation Zrotation
									JOINT LeftHand
									{
										OFFSET 18.484802 0.000000 -0.000000
										CHANNELS 3 Xrotation Yrotation Zrotation
										JOINT LeftHandThumb1
										{
											OFFSET 2.499420 -1.158070 2.653252
											CHANNELS 3 Xrotation Yrotation Zrotation
											JOINT LeftHandThumb2
											{
												OFFSET 2.370079 -1.368366 1.368366
												CHANNELS 3 Xrotation Yrotation Zrotation
												JOINT LeftHandThumb3
												{
													OFFSET 2.676727 -1.545410 1.545409
													CHANNELS 3 Xrotation Yrotation Zrotation
													JOINT LeftHandThumb4
													{
														OFFSET 1.692226 -0.977005 0.977007
														CHANNELS 3 Xrotation Yrotation Zrotation
														End Site
														{
															OFFSET 0.000000 0.000000 0.000000
														}
													}
												}
											}
										}
										JOINT LeftHandIndex1
										{
											OFFSET 7.924831 -0.457527 2.345128
											CHANNELS 3 Xrotation Yrotation Zrotation
											JOINT LeftHandIndex2
											{
												OFFSET 3.643303 0.000000 0.000000
												CHANNELS 3 Xrotation Yrotation Zrotation
												JOINT LeftHandIndex3
												{
													OFFSET 3.810799 0.000000 0.000000
													CHANNELS 3 Xrotation Yrotation Zrotation
													JOINT LeftHandIndex4
													{
														OFFSET 2.403702 0.000000 0.000000
														CHANNELS 3 Xrotation Yrotation Zrotation
														End Site
														{
															OFFSET 0.000000 0.000000 0.000000
														}
													}
												}
											}
										}
										JOINT LeftHandMiddle1
										{
											OFFSET 8.563995 0.000000 -0.000000
											CHANNELS 3 Xrotation Yrotation Zrotation
											JOINT LeftHandMiddle2
											{
												OFFSET 3.861618 0.000000 0.000000
												CHANNELS 3 Xrotation Yrotation Zrotation
												JOINT LeftHandMiddle3
												{
													OFFSET 3.701603 0.000000 0.000000
													CHANNELS 3 Xrotation Yrotation Zrotation
													JOINT LeftHandMiddle4
													{
														OFFSET 2.322544 0.000000 0.000000
														CHANNELS 3 Xrotation Yrotation Zrotation
														End Site
														{
															OFFSET 0.000000 0.000000 0.000000
														}
													}
												}
											}
										}
										JOINT LeftHandRing1
										{
											OFFSET 8.426460 -0.424637 -3.286992
											CHANNELS 3 Xrotation Yrotation Zrotation
											JOINT LeftHandRing2
											{
												OFFSET 3.126408 0.000000 0.000000
												CHANNELS 3 Xrotation Yrotation Zrotation
												JOINT LeftHandRing3
												{
													OFFSET 3.085026 0.000000 0.000000
													CHANNELS 3 Xrotation Yrotation Zrotation
													JOINT LeftHandRing4
													{
														OFFSET 1.644005 0.000000 0.000000
														CHANNELS 3 Xrotation Yrotation Zrotation
														End Site
														{
															OFFSET 0.000000 0.000000 0.000000
														}
													}
												}
											}
										}
									}
								}
							}
						}
					}
					JOINT RightShoulder
					{
						OFFSET -2.196100 4.412496 0.070690
						CHANNELS 3 Xrotation Yrotation Zrotation
						JOINT RightShoulder_split
						{
							OFFSET -2.196100 4.412496 0.070690
							CHANNELS 3 Xrotation Yrotation Zrotation
							JOINT RightArm
							{
								OFFSET -8.771282 -2.981682 -0.094208
								CHANNELS 3 Xrotation Yrotation Zrotation
								JOINT RightForeArm
								{
									OFFSET -8.494598 0.000000 0.000000
									CHANNELS 3 Xrotation Yrotation Zrotation
									JOINT RightHand
									{
										OFFSET -18.483803 0.000000 0.000001
										CHANNELS 3 Xrotation Yrotation Zrotation
										JOINT RightHandThumb1
										{
											OFFSET -2.527351 -1.008072 2.575253
											CHANNELS 3 Xrotation Yrotation Zrotation
											JOINT RightHandThumb2
											{
												OFFSET -2.321518 -1.340328 1.340329
												CHANNELS 3 Xrotation Yrotation Zrotation
												JOINT RightHandThumb3
												{
													OFFSET -2.657753 -1.534454 1.534455
													CHANNELS 3 Xrotation Yrotation Zrotation
													JOINT RightHandThumb4
													{
														OFFSET -1.807510 -1.043568 1.043567
														CHANNELS 3 Xrotation Yrotation Zrotation
														End Site
														{
															OFFSET 0.000000 0.000000 0.000000
														}
													}
												}
											}
										}
										JOINT RightHandIndex1
										{
											OFFSET -8.811420 0.015533 2.887987
											CHANNELS 3 Xrotation Yrotation Zrotation
											JOINT RightHandIndex2
											{
												OFFSET -3.537502 0.000000 0.000000
												CHANNELS 3 Xrotation Yrotation Zrotation
												JOINT RightHandIndex3
												{
													OFFSET -3.356201 0.000000 0.000000
													CHANNELS 3 Xrotation Yrotation Zrotation
													JOINT RightHandIndex4
													{
														OFFSET -1.933098 0.000000 0.000000
														CHANNELS 3 Xrotation Yrotation Zrotation
														End Site
														{
															OFFSET 0.000000 0.000000 0.000000
														}
													}
												}
											}
										}
										JOINT RightHandMiddle1
										{
											OFFSET -8.178135 0.000000 0.000000
											CHANNELS 3 Xrotation Yrotation Zrotation
											JOINT RightHandMiddle2
											{
												OFFSET -3.901302 0.000000 0.000000
												CHANNELS 3 Xrotation Yrotation Zrotation
												JOINT RightHandMiddle3
												{
													OFFSET -3.909599 0.000000 0.000000
													CHANNELS 3 Xrotation Yrotation Zrotation
													JOINT RightHandMiddle4
													{
														OFFSET -2.376003 0.000000 0.000000
														CHANNELS 3 Xrotation Yrotation Zrotation
														End Site
														{
															OFFSET 0.000000 0.000000 0.000000
														}
													}
												}
											}
										}
										JOINT RightHandRing1
										{
											OFFSET -7.559013 0.014137 -2.865403
											CHANNELS 3 Xrotation Yrotation Zrotation
											JOINT RightHandRing2
											{
												OFFSET -3.449306 0.000000 0.000000
												CHANNELS 3 Xrotation Yrotation Zrotation
												JOINT RightHandRing3
												{
													OFFSET -3.362106 0.000000 0.000000
													CHANNELS 3 Xrotation Yrotation Zrotation
													JOINT RightHandRing4
													{
														OFFSET -2.076401 0.000000 0.000000
														CHANNELS 3 Xrotation Yrotation Zrotation
														End Site
														{
															OFFSET 0.000000 0.000000 0.000000
														}
													}
												}
											}
										}
									}
								}
							}
						}
					}
				}
			}
		}
	}
	JOINT LeftUpLeg
	{
		OFFSET 10.205400 -3.823500 0.155100
		CHANNELS 3 Xrotation Yrotation Zrotation
		JOINT LeftLeg
		{
			OFFSET 0.708757 -12.982077 0.567790
			CHANNELS 3 Xrotation Yrotation Zrotation
			JOINT LeftFoot
			{
				OFFSET -0.708756 -10.717838 -2.184338
				CHANNELS 3 Xrotation Yrotation Zrotation
				JOINT LeftToeBase
				{
					OFFSET 0.108149 -7.191104 7.560241
					CHANNELS 3 Xrotation Yrotation Zrotation
					JOINT LeftToe_End
					{
						OFFSET 0.070230 0.081724 4.490308
						CHANNELS 3 Xrotation Yrotation Zrotation
						End Site
						{
							OFFSET 0.000000 0.000000 0.000000
						}
					}
				}
			}
		}
	}
	JOINT RightUpLeg
	{
		OFFSET -10.205400 -3.823500 0.005500
		CHANNELS 3 Xrotation Yrotation Zrotation
		JOINT RightLeg
		{
			OFFSET -0.708756 -12.982134 0.610632
			CHANNELS 3 Xrotation Yrotation Zrotation
			JOINT RightFoot
			{
				OFFSET 0.708754 -10.717769 -1.945823
				CHANNELS 3 Xrotation Yrotation Zrotation
				JOINT RightToeBase
				{
					OFFSET -0.108140 -7.191069 7.372968
					CHANNELS 3 Xrotation Yrotation Zrotation
					JOINT RightToe_End
					{
						OFFSET -0.070227 0.081735 4.479403
						CHANNELS 3 Xrotation Yrotation Zrotation
						End Site
						{
							OFFSET 0.000000 0.000000 0.000000
						}
					}
				}
			}
		}
	}
}
MOTION
Frames: 5
Frame Time: 0.016667
-3.050256 26.792957 3.818994 7.173931 -59.179607 -0.275018 4.785435 10.899101 1.094406 6.079592 5.798305 -0.521029 0.000000 0.000000 0.000000 5.085126 16.136083 1.189171 6.289639 5.421252 -4.908951 -11.393627 17.889739 5.359091 -0.000000 0.000000 -0.000000 3.544250 4.756004 -11.622993 0.000000 0.000000 0.000000 -54.038848 -33.116432 -50.381535 -0.000035 -81.882357 -0.000059 -58.768355 25.992652 38.870327 -14.557459 10.837962 12.229979 0.749562 -4.257799 13.305516 -10.783786 -23.179353 -4.132445 -0.000002 -0.000001 -0.000002 -0.809543 2.578171 -31.496444 3.095877 5.163782 -61.866959 0.503789 2.378657 -23.913134 0.000000 0.000000 0.000002 -2.430848 1.729212 -41.460932 2.952347 5.084759 -60.259931 1.321763 3.707981 -39.227832 -0.000001 0.000001 -0.000002 -6.054126 -0.166572 -49.857574 3.046263 5.137008 -61.313946 0.351697 2.001115 -19.935121 -0.000000 -0.000000 -0.000001 -14.733703 2.115980 -4.463083 0.000000 0.000000 0.000000 72.337543 138.834018 -52.653508 0.000004 29.080733 -0.000012 -49.752423 -7.371308 -31.498742 8.377131 -4.904132 11.021993 21.620209 -18.183914 -18.379199 -0.702857 -49.821217 -32.535152 0.000002 -0.000000 -0.000006 0.558925 -4.406579 25.436669 1.653047 -3.560332 49.799097 1.737721 -3.630071 51.149217 -0.000000 -0.000000 -0.000003 10.969822 -12.875539 52.800835 6.387587 -4.324412 111.833672 0.247348 -1.499135 18.739136 -0.000000 0.000001 -0.000000 3.705094 -7.151323 57.622440 5.328225 -4.608667 98.293409 1.627359 -3.538495 49.384006 0.000000 -0.000000 -0.000001 -57.787369 -25.396125 40.065934 45.035023 -14.725963 -1.940235 19.794078 0.841855 -15.053848 0.000006 0.000014 -0.000003 0.000000 -0.000003 0.000002 -43.707559 2.857300 -28.115934 67.698793 12.993670 2.036694 -16.728691 -6.044397 18.231815 -10.352723 0.000079 0.000024 0.000000 -0.000003 0.000000 
-3.167632 27.676170 1.717612 8.666582 -60.046269 0.728827 4.948147 10.692233 1.416823 6.266321 5.663350 -0.193640 0.000000 0.000000 0.000000 5.219012 15.988011 1.524876 6.117324 5.473302 -4.875341 -11.907631 18.231202 4.903865 -0.000001 -0.000000 0.000000 3.410888 4.228975 -11.245888 0.000000 0.000000 0.000000 -53.679737 -32.244568 -50.209585 0.000075 -82.808305 0.000085 -57.769979 25.806965 38.829103 -14.557457 10.837957 12.229975 0.749564 -4.257807 13.305514 -10.783787 -23.179350 -4.132445 0.000001 0.000004 -0.000000 -0.809543 2.578171 -31.496444 3.095878 5.163781 -61.866966 0.503786 2.378657 -23.913133 0.000001 -0.000001 0.000001 -2.430847 1.729213 -41.460928 2.952348 5.084757 -60.259931 1.321763 3.707979 -39.227825 0.000000 0.000000 0.000002 -6.054126 -0.166571 -49.857574 3.046264 5.137007 -61.313939 0.351696 2.001115 -19.935119 0.000000 -0.000001 0.000002 -14.874832 3.395342 -4.575066 0.000000 0.000000 0.000000 74.932414 137.222079 -55.175101 0.000013 32.460662 -0.000006 -50.128585 -7.281827 -32.986081 8.377132 -4.904138 11.021994 21.620211 -18.183917 -18.379199 -0.702857 -49.821210 -32.535148 0.000003 0.000001 -0.000002 0.558926 -4.406578 25.436666 1.653050 -3.560332 49.799097 1.737719 -3.630071 51.149217 0.000000 -0.000000 -0.000001 10.969822 -12.875539 52.800842 6.387584 -4.324414 111.833672 0.247348 -1.499134 18.739136 -0.000001 0.000001 -0.000000 3.705097 -7.151322 57.622440 5.328224 -4.608666 98.293409 1.627359 -3.538496 49.383992 0.000000 0.000001 0.000001 -61.089109 -24.422909 35.466225 54.825321 -11.522359 -1.458307 10.934680 1.202387 -13.675278 0.000003 -0.000023 0.000007 0.000001 0.000002 -0.000001 -47.799286 0.200526 -22.623420 66.163332 10.534902 1.681252 -10.523240 -4.559973 17.874542 -9.522589 0.000043 0.000006 0.000000 -0.000000 -0.000000 
-3.347889 28.600281 -0.522449 11.036371 -61.371763 2.571499 5.011380 10.610765 1.472528 6.308405 5.733787 0.124733 0.000000 0.000000 0.000000 5.204269 16.033847 1.859610 6.010201 5.497593 -4.746235 -12.496670 18.583678 4.459506 0.000000 -0.000000 0.000001 3.342827 3.885598 -11.068047 0.000000 0.000000 0.000000 -52.875814 -31.812415 -49.380591 -0.000071 -83.745352 -0.000141 -57.807422 26.117745 39.098984 -14.557454 10.837956 12.229977 0.749562 -4.257807 13.305512 -10.783786 -23.179350 -4.132443 -0.000004 -0.000005 -0.000001 -0.809544 2.578173 -31.496447 3.095879 5.163781 -61.866966 0.503785 2.378657 -23.913131 0.000003 -0.000002 0.000003 -2.430848 1.729213 -41.460928 2.952348 5.084756 -60.259931 1.321762 3.707981 -39.227822 0.000000 0.000000 -0.000000 -6.054124 -0.166574 -49.857574 3.046265 5.137008 -61.313939 0.351696 2.001116 -19.935119 0.000001 0.000000 -0.000005 -14.973889 4.793945 -4.441336 0.000000 0.000000 0.000000 77.819241 135.933223 -57.695680 -0.000005 35.490039 0.000002 -50.675212 -7.755475 -34.661745 8.377133 -4.904136 11.021990 21.620214 -18.183919 -18.379196 -0.702858 -49.821217 -32.535148 -0.000002 0.000005 -0.000002 0.558926 -4.406578 25.436668 1.653048 -3.560332 49.799094 1.737721 -3.630072 51.149217 0.000000 -0.000001 0.000000 10.969820 -12.875542 52.800839 6.387587 -4.324410 111.833679 0.247348 -1.499134 18.739135 -0.000001 0.000000 0.000000 3.705096 -7.151323 57.622440 5.328224 -4.608667 98.293409 1.627360 -3.538496 49.384006 -0.000001 -0.000000 -0.000000 -63.718206 -22.193641 30.792566 62.457272 -9.123799 -1.062749 3.397283 1.567495 -13.103982 -0.790465 0.000014 -0.000003 -0.000000 -0.000001 -0.000001 -50.814425 -4.137748 -15.552496 63.673168 6.641049 0.923416 -7.541582 -2.050072 12.647931 -9.252099 0.000025 -0.000001 0.000000 -0.000000 -0.000000 
-3.604545 29.499157 -2.816941 14.299570 -63.078880 5.466549 5.013507 10.570367 1.153950 6.230981 6.000054 0.369757 0.000000 0.000000 0.000000 5.078929 16.267965 2.126722 5.962569 5.490726 -4.561726 -13.126859 18.849128 4.125947 -0.000000 -0.000000 0.000000 3.352123 3.739646 -11.139859 0.000000 0.000000 0.000000 -51.775925 -31.735412 -48.041549 -0.000109 -84.599659 -0.000111 -58.433853 26.314993 39.463528 -14.557459 10.837959 12.229982 0.749564 -4.257803 13.305515 -10.783790 -23.179353 -4.132441 -0.000005 -0.000003 -0.000002 -0.809543 2.578171 -31.496444 3.095879 5.163780 -61.866966 0.503787 2.378658 -23.913131 0.000001 -0.000001 0.000002 -2.430848 1.729212 -41.460925 2.952346 5.084757 -60.259931 1.321766 3.707981 -39.227825 -0.000000 0.000000 -0.000001 -6.054125 -0.166572 -49.857574 3.046264 5.137008 -61.313939 0.351697 2.001116 -19.935119 0.000001 -0.000000 0.000003 -15.042378 6.381678 -4.115085 0.000000 0.000000 0.000000 80.832953 134.974414 -60.173338 0.000020 38.062028 -0.000010 -50.934852 -8.384259 -36.240349 8.377131 -4.904135 11.021996 21.620202 -18.183910 -18.379196 -0.702857 -49.821217 -32.535159 -0.000000 0.000000 -0.000002 0.558924 -4.406579 25.436664 1.653047 -3.560332 49.799097 1.737717 -3.630071 51.149217 0.000000 -0.000000 0.000000 10.969821 -12.875542 52.800835 6.387587 -4.324412 111.833679 0.247349 -1.499133 18.739135 -0.000000 -0.000001 0.000000 3.705098 -7.151322 57.622440 5.328229 -4.608668 98.293409 1.627360 -3.538495 49.384003 0.000000 0.000000 -0.000000 -65.987120 -18.669226 26.333767 67.238541 -7.826670 -0.775199 -1.672939 1.900285 -13.373272 -0.643205 0.000002 -0.000004 0.000000 0.000002 -0.000000 -52.784047 -6.995638 -10.542065 60.201772 5.851654 0.647548 -5.564376 -1.250199 15.725015 -8.663159 0.000073 0.000012 -0.000000 0.000001 0.000000 
-3.885601 30.301197 -5.092257 18.150104 -64.997890 9.183595 5.002555 10.570659 0.593398 6.102148 6.417211 0.514766 0.000000 0.000000 0.000000 4.918149 16.654298 2.295241 5.970358 5.433346 -4.378253 -13.661107 18.875854 3.950040 0.000000 0.000001 0.000000 3.417883 3.714089 -11.398250 0.000000 0.000000 0.000000 -50.782344 -31.863584 -46.590264 0.000063 -85.111677 0.000045 -59.076704 26.217471 39.499086 -14.557454 10.837961 12.229980 0.749564 -4.257802 13.305516 -10.783788 -23.179353 -4.132444 -0.000003 -0.000003 -0.000000 -0.809544 2.578170 -31.496447 3.095877 5.163782 -61.866966 0.503787 2.378654 -23.913131 0.000001 0.000001 0.000000 -2.430848 1.729212 -41.460928 2.952349 5.084755 -60.259938 1.321763 3.707979 -39.227825 0.000001 -0.000000 0.000001 -6.054126 -0.166573 -49.857570 3.046263 5.137008 -61.313932 0.351697 2.001115 -19.935118 0.000000 -0.000001 0.000000 -15.100654 8.148907 -3.712563 0.000000 0.000000 0.000000 83.712848 134.359684 -62.582790 0.000023 39.987527 -0.000020 -50.779386 -8.838718 -37.597811 8.377131 -4.904136 11.021996 21.620204 -18.183917 -18.379196 -0.702856 -49.821217 -32.535152 0.000003 0.000001 -0.000002 0.558926 -4.406578 25.436668 1.653046 -3.560333 49.799097 1.737723 -3.630072 51.149214 -0.000001 -0.000002 -0.000000 10.969823 -12.875542 52.800835 6.387586 -4.324410 111.833679 0.247348 -1.499132 18.739136 -0.000000 0.000001 0.000002 3.705097 -7.151323 57.622440 5.328225 -4.608668 98.293416 1.627359 -3.538495 49.383999 0.000000 0.000000 0.000001 -68.016554 -13.947479 22.272543 69.552936 -7.455529 -0.561012 -3.879707 2.094586 -14.194461 -0.224702 -0.000016 0.000001 0.000000 0.000001 -0.000000 -53.290888 -8.864418 -6.519196 55.041780 5.578121 0.585050 -3.004744 -0.560598 23.013651 -5.515034 0.012543 -0.901711 0.000000 0.000003 -0.000001 
